[Header]
FileType HTR
DataType HTRS
FileVersion 1
NumSegments 22
NumFrames 4
DataFrameRate 24
EulerRotationOrder ZYX
CalibrationUnits mm
RotationUnits Degrees
GlobalAxisofGravity Y
BoneLengthAxis Y
ScaleFactor 1.0
[SegmentNames&Hierarchy]
reference	GLOBAL
Hips	reference
Spine	Hips
Spine1	Spine
Neck	Spine1
Head	Neck
LeftShoulder	Spine1
LeftArm	LeftShoulder
LeftForeArm	LeftArm
LeftHand	LeftForeArm
RightShoulder	Spine1
RightArm	RightShoulder
RightForeArm	RightArm
RightHand	RightForeArm
LeftUpLeg	Hips
LeftLeg	LeftUpLeg
LeftFoot	LeftLeg
LeftToeBase	LeftFoot
RightUpLeg	Hips
RightLeg	RightUpLeg
RightFoot	RightLeg
RightToeBase	RightFoot
[BasePosition]
reference	0	0	0	0	0	0	1
Hips	0	0	0	0	0	0	1
Spine	0	0	0	0	-0	90	1
Spine1	0	0	0	0	0	0	1
Neck	0	0	0	-7.352327771	-7.352327771	90	1
Head	0	0	0	0	-0	90	1
LeftShoulder	0	0	0	0	0	0	1
LeftArm	0	0	0	0	0	0	1
LeftForeArm	0	0	0	0	0	0	1
LeftHand	0	0	0	0	0	0	1
RightShoulder	0	0	0	0	-0	180	1
RightArm	0	0	0	0	-0	180	1
RightForeArm	0	0	0	0	-0	180	1
RightHand	0	0	0	0	-0	180	1
LeftUpLeg	0	0	0	0	-0	-90	1
LeftLeg	0	0	0	0	-0	-90	1
LeftFoot	0	0	0	66.57146043	-66.57146043	-90	1
LeftToeBase	0	0	0	0	-90	0	1
RightUpLeg	0	0	0	0	-0	-90	1
RightLeg	0	0	0	0	-0	-90	1
RightFoot	0	0	0	66.57146043	-66.57146043	-90	1
RightToeBase	0	0	0	0	-90	0	1
[reference]
1	0	0	0	0	-0	0	1.0
2	0	0	0	0	-0	0	1.0
3	0	0	0	0	-0	0	1.0
4	0	0	0	0	-0	0	1.0
[Hips]
1	7.445380211	8.243370056	4.620369911	-8.503097534	-103.1017532	11.20860291	1.0
2	7.445380211	8.243370056	4.620369911	-8.473897934	-103.0395813	11.16140938	1.0
3	7.445380211	8.243370056	4.620369911	-8.516415596	-102.9753799	11.19288063	1.0
4	7.445380211	8.243370056	4.620369911	-8.696704865	-102.8987961	11.43706322	1.0
[Spine]
1	0	0.7457100153	0	-8.650727272	-1.223942518	-89.80799866	1.0
2	0	0.7457100153	0	-8.649416924	-1.197054386	-89.80740356	1.0
3	0	0.7457100153	0	-8.657815933	-1.179863214	-89.82935333	1.0
4	0	0.7457100153	0	-8.672687531	-1.231262922	-89.84867096	1.0
[Spine1]
1	0	2.140589952	0	11.20768833	-0.624361217	2.174422979	1.0
2	0	2.140589952	0	11.24056625	-0.6246592402	2.196499586	1.0
3	0	2.140589952	0	11.31438923	-0.6360183358	2.315340281	1.0
4	0	2.140589952	0	11.26684952	-0.6358624101	2.356434822	1.0
[Neck]
1	0	2.32246995	0	-13.36000347	1.132396698	-89.06712341	1.0
2	0	2.32246995	0	-13.81191826	1.242165923	-88.95401001	1.0
3	0	2.32246995	0	-14.07927132	1.367238045	-88.87069702	1.0
4	0	2.32246995	0	-14.24375534	1.441931725	-88.79947662	1.0
[Head]
1	0	1.409579992	0.1818799973	-12.31261539	0.08701834083	-94.17002869	1.0
2	0	1.409579992	0.1818799973	-11.53358173	0.1472208947	-94.61359406	1.0
3	0	1.409579992	0.1818799973	-11.13526344	0.1673411131	-94.90616608	1.0
4	0	1.409579992	0.1818799973	-10.9005003	0.1728142798	-95.02175903	1.0
[LeftShoulder]
1	0.3668199778	1.946700096	-0.02662999928	-14.56202507	-12.14574814	-2.269728422	1.0
2	0.3668199778	1.946700096	-0.02662999928	-14.78926468	-12.07029819	-2.218646049	1.0
3	0.3668199778	1.946700096	-0.02662999928	-14.88510704	-12.02224731	-2.308835506	1.0
4	0.3668199778	1.946700096	-0.02662999928	-14.9540863	-11.99287033	-2.275814533	1.0
[LeftArm]
1	1.140689969	0	0	43.42735672	14.99107838	-78.90313721	1.0
2	1.140689969	0	0	43.65377426	15.03378963	-78.89730072	1.0
3	1.140689969	0	0	43.6847229	15.00621223	-78.71647644	1.0
4	1.140689969	0	0	43.37911224	15.01121712	-78.5443573	1.0
[LeftForeArm]
1	2.749800205	0	0	-17.32039261	-14.56991863	5.291052341	1.0
2	2.749800205	0	0	-17.31036568	-14.78954029	5.508178234	1.0
3	2.749800205	0	0	-17.31476593	-14.95378113	5.585385323	1.0
4	2.749800205	0	0	-17.12060738	-15.01544189	5.395731926	1.0
[LeftHand]
1	2.295179844	0	0	-16.58978462	-4.228530884	-1.456172824	1.0
2	2.295179844	0	0	-16.5432682	-4.404418945	-1.343863487	1.0
3	2.295179844	0	0	-16.54101753	-4.535866261	-1.013327122	1.0
4	2.295179844	0	0	-16.37313461	-4.520905495	-0.9083727598	1.0
[RightShoulder]
1	-0.3601199985	1.946700096	-0.02662999928	-5.692009926	2.027963877	173.7598724	1.0
2	-0.3601199985	1.946700096	-0.02662999928	-5.808648586	1.863194704	173.6638489	1.0
3	-0.3601199985	1.946700096	-0.02662999928	-5.890753746	1.751996756	173.6057434	1.0
4	-0.3601199985	1.946700096	-0.02662999928	-5.924035072	1.732303381	173.5665436	1.0
[RightArm]
1	-1.140689969	0	0	55.41827393	-0.6558935046	-95.27350616	1.0
2	-1.140689969	0	0	55.1267128	-0.6995217204	-95.28157043	1.0
3	-1.140689969	0	0	54.71938324	-0.7429413199	-95.39291382	1.0
4	-1.140689969	0	0	54.41229248	-0.7628568411	-95.58187866	1.0
[RightForeArm]
1	-2.749800205	0	0	-1.261037588	14.23479748	176.4085999	1.0
2	-2.749800205	0	0	-1.774997473	13.68973255	176.2588654	1.0
3	-2.749800205	0	0	-1.903170586	13.10691833	176.3295135	1.0
4	-2.749800205	0	0	-1.837412238	12.67251205	176.5670166	1.0
[RightHand]
1	-2.295179844	0	0	-1.218103647	8.675680161	174.6564484	1.0
2	-2.295179844	0	0	-1.747929335	8.155073166	174.0844116	1.0
3	-2.295179844	0	0	-1.887718201	7.821677685	174.0574799	1.0
4	-2.295179844	0	0	-1.845115423	7.552651882	174.1121979	1.0
[LeftUpLeg]
1	0.9094099998	0	0	5.861950397	3.778614283	92.43802643	1.0
2	0.9094099998	0	0	5.899568558	3.824953318	92.39724731	1.0
3	0.9094099998	0	0	5.893596649	3.853059053	92.34737396	1.0
4	0.9094099998	0	0	5.693555355	3.762367725	92.40341949	1.0
[LeftLeg]
1	0	-4.498080254	0	4.380928516	-5.522604465	88.76182556	1.0
2	0	-4.498080254	0	4.36102438	-5.578251362	88.75863647	1.0
3	0	-4.498080254	0	4.409535408	-5.621276855	88.78523254	1.0
4	0	-4.498080254	0	4.653290749	-5.754175186	88.71102905	1.0
[LeftFoot]
1	0	-3.729400158	0	-103.1786423	109.3291931	-39.86561584	1.0
2	0	-3.729400158	0	-103.2828674	109.3410645	-39.98348999	1.0
3	0	-3.729400158	0	-103.3062668	109.3555222	-39.99699783	1.0
4	0	-3.729400158	0	-103.1548004	109.424263	-39.64151382	1.0
[LeftToeBase]
1	0	-0.5911099911	1.364109993	0	0	0	1.0
2	0	-0.5911099911	1.364109993	0	0	0	1.0
3	0	-0.5911099911	1.364109993	0	0	0	1.0
4	0	-0.5911099911	1.364109993	0	0	0	1.0
[RightUpLeg]
1	-0.9094099998	0	0	-0.07281984389	-3.218273401	93.50724792	1.0
2	-0.9094099998	0	0	-0.08357686549	-3.379397392	93.45529175	1.0
3	-0.9094099998	0	0	-0.1143693477	-3.285429478	93.42350769	1.0
4	-0.9094099998	0	0	-0.2922931314	-3.278251648	93.49961853	1.0
[RightLeg]
1	0	-4.498080254	0	5.611472607	0.5901862979	91.09233093	1.0
2	0	-4.498080254	0	5.723902702	0.7095150948	91.09289551	1.0
3	0	-4.498080254	0	5.843439102	0.6393688917	91.07782745	1.0
4	0	-4.498080254	0	6.070228577	0.6356115341	91.03339386	1.0
[RightFoot]
1	0	-3.729400158	0	25.13818932	66.17242432	81.74886322	1.0
2	0	-3.729400158	0	24.96767235	66.14578247	81.6723175	1.0
3	0	-3.729400158	0	24.83351517	66.10592651	81.58942413	1.0
4	0	-3.729400158	0	24.61517334	66.02986908	81.46759033	1.0
[RightToeBase]
1	0	-0.5911099911	1.364109993	0	0	0	1.0
2	0	-0.5911099911	1.364109993	0	0	0	1.0
3	0	-0.5911099911	1.364109993	0	0	0	1.0
4	0	-0.5911099911	1.364109993	0	0	0	1.0
[EndOfFile]
